# xmcd
#
# Track frame offsets: 
#        150
#        21950
#        54587
#        67513
#        114262
#        164812
#        227960
#
# Disc length: 4319 seconds
#
# Revision: 7
# Processed by: cddbd v1.5.2PL0 Copyright (c) Steve Scherf et al.
# Submitted via: ExactAudioCopy v1.0b3
#
DISCID=5510dd07
DTITLE=Bessie Smith - The Complete Recordings, Vol.5 - CD2
DYEAR=1996
DGENRE=Blues
TTITLE0=Ruby Smith and Chris Albertson - Bessie Disappears
TTITLE1=Ruby Smith and Chris Albertson - Waldorf-Astoria Party
TTITLE2=Ruby Smith and Chris Albertson - Bessie and Jack, I
TTITLE3=Ruby Smith and Chris Albertson - Bessie and Jack, II - Bessie and Th
TTITLE3=e Ladies
TTITLE4=Ruby Smith and Chris Albertson - Life on the Road, I
TTITLE5=Ruby Smith and Chris Albertson - Life on the Road, II
TTITLE6=Ruby Smith and Chris Albertson - Life on the Road, III - Bessie 
TTITLE6=& Gertrude Saunders
EXTD=
EXTT0=
EXTT1=
EXTT2=
EXTT3=
EXTT4=
EXTT5=
EXTT6=
PLAYORDER=
